<?xml version="1.0" encoding="utf-8"?>
<!-- Generator: Adobe Illustrator 16.0.0, SVG Export Plug-In . SVG Version: 6.00 Build 0)  -->
<!DOCTYPE svg PUBLIC "-//W3C//DTD SVG 1.1//EN" "http://www.w3.org/Graphics/SVG/1.1/DTD/svg11.dtd">
<svg version="1.1" id="Layer_1" xmlns="http://www.w3.org/2000/svg" xmlns:xlink="http://www.w3.org/1999/xlink" x="0px" y="0px"
	 width="578.083px" height="169.863px" viewBox="0 0 578.083 169.863" enable-background="new 0 0 578.083 169.863"
	 xml:space="preserve">
<path fill="#3C2A74" d="M22.496,0.603l24.256,112l237.508,42l253.68-40L562.118,0.738L22.496,0.603z M312.054,137.853H261.52v-2
	h50.534V137.853z M388.36,124.728H186.226v-2H388.36V124.728z M474.774,111.603H95.77v-2h379.004V111.603L474.774,111.603z"/>
<polygon fill="none" stroke="#3B2C74" stroke-width="6" stroke-miterlimit="10" points="11.664,2.902 38.368,118.103 
	284.467,162.302 545.321,120.302 571.917,3.052 "/>
<g enable-background="new    ">
	<path fill="#FFFFFF" d="M101.633,19.861v15.478H83.21v48.165H68.975V35.339H50.552V19.861H101.633z"/>
	<path fill="#FFFFFF" d="M153.967,56.371l10.049,27.132h-15.659l-8.709-24.219h-14.32v24.219h-14.236V19.861h33.412
		c9.965,0,18.172,8.832,18.172,19.667C162.676,46.629,159.159,52.911,153.967,56.371z M148.356,39.527
		c0-2.276-1.759-4.188-3.853-4.188h-19.176v8.468h19.176C146.598,43.806,148.356,41.894,148.356,39.527z"/>
</g>
<g enable-background="new    ">
	<path fill="#FFFFFF" d="M212.667,75.674h-23.866l-2.764,7.83h-15.408l22.526-63.643h15.073l22.609,63.643H215.43L212.667,75.674z
		 M207.224,60.195l-6.532-18.392l-6.448,18.392H207.224z"/>
</g>
<g enable-background="new    ">
	<path fill="#FFFFFF" d="M237.784,19.861h14.236v63.461h-14.236V19.861z"/>
	<path fill="#FFFFFF" d="M279.064,67.934h32.407v15.569h-46.643V19.861h14.236V67.934z"/>
</g>
<g enable-background="new    ">
	<path fill="#FFFFFF" d="M373.854,19.861v15.478h-18.422v48.165h-14.236V35.339h-18.423V19.861H373.854z"/>
</g>
<g enable-background="new    ">
	<path fill="#FFFFFF" d="M381.889,19.861h14.236v63.461h-14.236V19.861z"/>
</g>
<g enable-background="new    ">
	<path fill="#FFFFFF" d="M430.875,83.504l-8.289-22.853v22.671H408.35V19.769h14.822l15.324,42.429l15.408-42.429h14.738v63.553
		h-14.236V60.651l-8.291,22.853H430.875z"/>
</g>
<g enable-background="new    ">
	<path fill="#FFFFFF" d="M480.864,19.861h45.805V35.43H495.1v8.468h24.703v15.478H495.1v8.468h31.568v15.479h-45.805V19.861z"/>
</g>
</svg>
