<?xml version="1.0" encoding="utf-8"?>
<!-- Generator: Adobe Illustrator 16.0.0, SVG Export Plug-In . SVG Version: 6.00 Build 0)  -->
<!DOCTYPE svg PUBLIC "-//W3C//DTD SVG 1.1//EN" "http://www.w3.org/Graphics/SVG/1.1/DTD/svg11.dtd">
<svg version="1.1" id="Layer_1" xmlns="http://www.w3.org/2000/svg" xmlns:xlink="http://www.w3.org/1999/xlink" x="0px" y="0px"
	 width="127.667px" height="134px" viewBox="0 0 127.667 134" enable-background="new 0 0 127.667 134" xml:space="preserve">
<g>
	<g>
		<defs>
			<circle id="SVGID_1_" cx="66.761" cy="73.112" r="56.49"/>
		</defs>
		<clipPath id="SVGID_2_">
			<use xlink:href="#SVGID_1_"  overflow="visible"/>
		</clipPath>
		<g clip-path="url(#SVGID_2_)">
			<path fill="#FFFFFF" d="M99.69,52.759c-3.633,36.028-63.196,28.894-67.554,69.403c10.894,2.383,20.025,8.072,31.191,7.447
				c14.817-0.824-6.081-20.877,10.348-36.947C90.287,76.41,104.774,68.52,104.49,52.015"/>
		</g>
	</g>
</g>
<path fill="#FFFFFF" d="M66.762,134c-33.574,0-60.888-27.314-60.888-60.889c0-33.571,27.314-60.883,60.888-60.883
	c33.573,0,60.887,27.312,60.887,60.883C127.649,106.686,100.335,134,66.762,134z M66.762,21.022
	c-28.724,0-52.093,23.367-52.093,52.089c0,28.725,23.369,52.094,52.093,52.094c28.725,0,52.093-23.369,52.093-52.094
	C118.855,44.39,95.487,21.022,66.762,21.022z"/>
<path fill="#FFFFFF" d="M73.264,32.097H51.399V10.234c0-5.371-4.509-9.768-9.885-9.768c-5.372,0-9.881,4.397-9.881,9.768v21.863
	H9.769C4.397,32.097,0,36.607,0,41.982c0,5.373,4.397,9.886,9.769,9.886h21.864v21.858c0,5.375,4.509,9.772,9.881,9.772
	c5.376,0,9.885-4.397,9.885-9.772V51.868h21.865c5.37,0,9.769-4.514,9.769-9.886C83.033,36.607,78.634,32.097,73.264,32.097z"/>
<path fill="#FFFFFF" d="M12.138,69.047c9.022-2.421,18.48-0.301,27.456,1.362c8.288,1.532,16.441,2.618,24.846,1.409
	c8.955-1.284,16.771-6.297,24.501-10.649c3.527-1.985,7.146-4.073,11.023-5.298c4.609-1.457,9.031-0.067,13.193,2.023
	c2.657,1.334,13.114-2.813,9.203-4.776c-19.52-9.798-36.404,5.857-53.484,13.075c-8.212,3.471-19.972-0.624-28.289-2.074
	c-9.933-1.731-19.797-1.972-29.595,0.657c-1.181,0.317-5.624,1.662-5.091,3.652C6.436,70.419,10.958,69.364,12.138,69.047
	L12.138,69.047z"/>
</svg>
