<?xml version="1.0" encoding="utf-8"?>
<!-- Generator: Adobe Illustrator 16.0.0, SVG Export Plug-In . SVG Version: 6.00 Build 0)  -->
<!DOCTYPE svg PUBLIC "-//W3C//DTD SVG 1.1//EN" "http://www.w3.org/Graphics/SVG/1.1/DTD/svg11.dtd">
<svg version="1.1" id="Layer_1" xmlns="http://www.w3.org/2000/svg" xmlns:xlink="http://www.w3.org/1999/xlink" x="0px" y="0px"
	 width="168px" height="134px" viewBox="0 0 168 134" enable-background="new 0 0 168 134" xml:space="preserve">
<g>
	<path fill="#FFFFFF" d="M19.276,60.378c0.255,0.064,0.448,0.208,0.576,0.432c0.127,0.224,0.16,0.464,0.096,0.72
		c-0.417,1.601-0.816,3.041-1.2,4.32c-0.384,1.28-0.84,2.735-1.369,4.367c-0.527,1.633-1.128,3.299-1.8,4.992
		c-1.568,4.032-3.089,7.201-4.56,9.504c-2.08,3.169-4.096,4.752-6.047,4.752H4.925c-1.024,0-1.872-0.4-2.544-1.201
		c-0.928-1.087-1.512-2.91-1.752-5.471c-0.24-2.561-0.152-6.032,0.264-10.416c0.16-1.758,0.369-3.59,0.624-5.496
		c0.257-1.903,0.537-3.815,0.84-5.735c0.304-1.92,0.615-3.799,0.936-5.639c0.32-1.84,0.624-3.608,0.912-5.305
		c0.352-1.887,0.664-3.615,0.936-5.184c0.272-1.567,0.488-2.959,0.648-4.176c0.063-0.479,0.416-0.871,1.057-1.176
		c0.64-0.304,1.327-0.48,2.063-0.528c0.736-0.048,1.384,0.072,1.944,0.36c0.559,0.288,0.774,0.816,0.647,1.584
		c-0.192,1.248-0.416,2.681-0.671,4.296c-0.257,1.616-0.561,3.384-0.912,5.304c-0.288,1.664-0.593,3.408-0.912,5.231
		c-0.32,1.824-0.632,3.68-0.936,5.568c-0.305,1.888-0.584,3.768-0.841,5.639c-0.255,1.872-0.464,3.672-0.624,5.399
		c-0.192,1.891-0.313,3.594-0.36,5.112c-0.047,1.519-0.041,2.888,0.024,4.104c0.095,1.152,0.199,2.07,0.312,2.76
		c0.111,0.688,0.271,1.128,0.479,1.318c0.208,0.193,0.495,0.121,0.864-0.215c0.368-0.336,0.855-0.969,1.463-1.896
		c0.736-1.121,1.472-2.448,2.208-3.983c0.736-1.537,1.472-3.264,2.208-5.184c0.64-1.665,1.224-3.296,1.751-4.896
		c0.529-1.6,0.976-3.031,1.345-4.295c0.367-1.264,0.655-2.287,0.864-3.071c0.208-0.784,0.312-1.192,0.312-1.224
		c0.064-0.256,0.215-0.447,0.457-0.576C18.773,60.346,19.02,60.314,19.276,60.378z"/>
	<path fill="#FFFFFF" d="M42.507,60.667c0.223,0.16,0.336,0.376,0.336,0.648s-0.081,0.503-0.24,0.696
		c-0.769,0.863-1.768,1.528-3,1.992c-1.233,0.464-2.632,0.696-4.2,0.696c-0.288,0-0.576,0-0.864,0s-0.576-0.016-0.863-0.048
		c-0.129,1.184-0.361,2.439-0.696,3.767c-0.336,1.329-0.873,2.602-1.609,3.814c-1.248,2.242-2.927,3.648-5.039,4.227h-0.048
		c-0.705,0.16-1.377,0.239-2.017,0.239c-1.024,0-1.912-0.12-2.663-0.36s-1.392-0.552-1.92-0.938
		c-0.527-0.383-0.967-0.814-1.319-1.295c-0.353-0.479-0.625-0.942-0.817-1.393c-0.543-1.215-0.822-2.496-0.839-3.839
		c-0.016-1.345,0.056-2.528,0.215-3.552c0.193-1.119,0.457-2.16,0.792-3.12c0.336-0.96,0.696-1.631,1.079-2.016
		c0.288-0.288,0.64-0.504,1.057-0.648c0.415-0.144,0.822-0.231,1.224-0.264c0.4-0.031,0.783,0,1.151,0.095
		c0.368,0.096,0.664,0.208,0.888,0.336c-0.768-0.832-1.392-1.729-1.872-2.688c-0.479-0.96-0.8-1.92-0.96-2.879
		c-0.319-1.759-0.112-3.424,0.625-4.992c0.512-1.056,1.248-1.903,2.208-2.543c0.991-0.607,2.064-0.864,3.216-0.768
		c1.343,0.161,2.527,0.8,3.551,1.919c0.928,0.993,1.712,2.336,2.352,4.032c0.608,1.536,1.048,3.256,1.32,5.16
		c0.271,1.904,0.36,3.833,0.264,5.784c0.256,0.032,0.521,0.048,0.793,0.048c0.271,0,0.535,0,0.792,0
		c1.279,0,2.415-0.175,3.408-0.528c0.991-0.352,1.775-0.847,2.352-1.488c0.16-0.223,0.375-0.336,0.648-0.336
		C42.082,60.426,42.314,60.507,42.507,60.667z M31.899,62.394c0.064-1.792-0.023-3.543-0.264-5.255
		c-0.239-1.711-0.631-3.271-1.175-4.68c-0.16-0.416-0.368-0.889-0.624-1.417c-0.257-0.528-0.569-1.024-0.937-1.488
		c-0.367-0.463-0.775-0.864-1.224-1.2c-0.449-0.336-0.96-0.536-1.536-0.6h-0.288c-0.64,0-1.248,0.192-1.824,0.577
		c-0.576,0.383-1.04,0.944-1.392,1.68c-0.256,0.479-0.433,1.04-0.529,1.68c-0.095,0.641-0.08,1.328,0.048,2.064
		c0.127,0.736,0.391,1.505,0.792,2.304c0.4,0.8,0.968,1.601,1.703,2.4c0.864,0.929,1.928,1.736,3.192,2.424
		C29.107,61.57,30.459,62.075,31.899,62.394z M29.74,71.273c0.511-0.896,0.935-1.928,1.271-3.097
		c0.336-1.168,0.584-2.44,0.745-3.815c-1.409-0.288-2.753-0.736-4.032-1.344c-1.28-0.608-2.417-1.345-3.408-2.208
		c-0.224,0.288-0.479,0.76-0.767,1.416c-0.288,0.656-0.561,1.656-0.817,3c-0.448,2.303-0.415,4.29,0.097,5.952
		c0.319,1.023,0.775,1.793,1.368,2.303c0.592,0.515,1.224,0.771,1.895,0.771c0.672,0,1.335-0.256,1.992-0.771
		C28.739,72.971,29.291,72.232,29.74,71.273z"/>
	<path fill="#FFFFFF" d="M66.41,60.378c0.255,0.064,0.447,0.208,0.576,0.432c0.127,0.224,0.159,0.464,0.096,0.72
		c-0.481,1.729-1.001,3.32-1.561,4.776c-0.56,1.458-1.192,2.808-1.896,4.057c-1.248,2.238-2.672,4.144-4.271,5.711
		c-0.257,0.257-0.505,0.488-0.745,0.695c-0.239,0.207-0.488,0.426-0.743,0.648c-0.417,4.287-1.001,7.887-1.753,10.798
		c-0.751,2.912-1.655,5.151-2.711,6.722c-1.217,1.854-2.656,3.215-4.319,4.08c-0.994,0.543-2.049,0.847-3.169,0.912
		c-1.121,0.063-2.2-0.08-3.24-0.434c-1.039-0.354-1.991-0.913-2.856-1.682c-0.863-0.767-1.536-1.694-2.016-2.781
		c-0.576-1.377-0.736-2.784-0.479-4.225c0.256-1.44,0.896-2.785,1.92-4.031c1.44-1.729,3-3.063,4.68-4.01
		c1.68-0.943,3.384-1.8,5.113-2.567c0.479-0.224,0.959-0.438,1.439-0.647c0.48-0.207,0.96-0.438,1.44-0.695
		c0.255-2.047,0.448-4.224,0.576-6.527c0.127-2.432,0.224-4.734,0.288-6.911c-0.768,2.335-1.793,4.433-3.072,6.287
		c-1.215,1.793-2.504,3.177-3.864,4.151c-1.361,0.976-2.665,1.465-3.913,1.465h-0.144c-1.472-0.064-2.624-0.784-3.456-2.16
		c-0.798-1.279-1.2-3.118-1.2-5.521c0-1.695,0.2-3.342,0.6-4.941c0.401-1.6,0.968-3.072,1.704-4.417
		c0.735-1.344,1.583-2.399,2.543-3.167c0.96-0.768,1.952-1.231,2.977-1.392c0.735-0.096,1.423-0.007,2.064,0.264
		c0.639,0.272,1.231,0.681,1.775,1.224c1.12,1.121,2,2.896,2.641,5.328c0.063,0.256,0.031,0.497-0.097,0.72
		c-0.129,0.224-0.32,0.368-0.576,0.432c-0.256,0.064-0.496,0.032-0.72-0.096c-0.224-0.127-0.367-0.319-0.431-0.575
		c-0.353-1.345-0.729-2.321-1.128-2.928c-0.401-0.608-0.81-0.912-1.225-0.912s-0.839,0.28-1.272,0.839
		c-0.431,0.561-0.888,1.337-1.368,2.328c-0.353,0.8-0.729,1.809-1.128,3.024c-0.4,1.217-0.6,2.64-0.6,4.271
		c0,1.697,0.16,2.873,0.48,3.528c0.32,0.655,0.728,0.944,1.224,0.864c0.495-0.08,1.056-0.439,1.68-1.081
		c0.624-0.64,1.239-1.407,1.848-2.304c1.216-1.824,2.192-3.913,2.928-6.263c0.736-2.352,1.216-4.744,1.44-7.176
		c0.031-0.319,0.2-0.623,0.504-0.912c0.303-0.288,0.68-0.536,1.127-0.744c0.448-0.208,0.928-0.343,1.439-0.408
		c0.512-0.064,0.984-0.04,1.417,0.072c0.431,0.112,0.798,0.329,1.104,0.648c0.304,0.32,0.455,0.785,0.455,1.392
		c0.033,1.697,0.048,3.249,0.048,4.656c0,1.408-0.024,3.04-0.073,4.896c-0.046,1.855-0.136,3.809-0.264,5.855l-0.143,1.969
		c1.375-1.376,2.679-3.145,3.912-5.305c1.231-2.16,2.312-4.919,3.239-8.279c0.064-0.256,0.208-0.447,0.433-0.576
		C65.914,60.346,66.153,60.314,66.41,60.378z M39.579,94.313c1.12,2.146,2.416,3.104,3.888,2.881
		c1.472-0.226,2.977-1.488,4.513-3.791c0.798-1.152,1.495-2.754,2.087-4.801c0.591-2.049,1.097-4.528,1.512-7.439
		c-0.288,0.128-0.575,0.256-0.863,0.384c-0.288,0.128-0.593,0.256-0.912,0.386c-0.833,0.383-1.657,0.768-2.472,1.149
		c-0.817,0.385-1.608,0.81-2.375,1.272c-0.769,0.465-1.505,0.992-2.208,1.584c-0.705,0.592-1.377,1.271-2.017,2.039
		c-0.8,0.991-1.303,2.032-1.512,3.121C39.011,92.186,39.13,93.257,39.579,94.313z"/>
	<path fill="#FFFFFF" d="M105.911,60.667c0.226,0.16,0.336,0.376,0.336,0.648s-0.08,0.503-0.239,0.696
		c-0.769,0.863-1.769,1.528-3,1.992c-1.23,0.464-2.633,0.696-4.201,0.696c-0.287,0-0.574,0-0.863,0
		c-0.287,0-0.575-0.016-0.862-0.048c-0.129,1.184-0.36,2.439-0.696,3.767c-0.336,1.329-0.871,2.602-1.607,3.814
		c-1.246,2.242-2.928,3.648-5.039,4.227h-0.049c-0.703,0.16-1.375,0.239-2.016,0.239c-1.025,0-1.912-0.12-2.665-0.36
		c-0.752-0.24-1.391-0.552-1.919-0.938c-0.529-0.383-0.969-0.814-1.32-1.295c-0.353-0.479-0.624-0.942-0.816-1.393
		c-0.544-1.215-0.823-2.496-0.841-3.839c-0.016-1.345,0.057-2.528,0.217-3.552c0.191-1.119,0.455-2.16,0.792-3.12
		c0.335-0.96,0.696-1.631,1.08-2.016c0.288-0.288,0.64-0.504,1.056-0.648s0.824-0.231,1.224-0.264c0.4-0.031,0.786,0,1.152,0.095
		c0.367,0.096,0.664,0.208,0.888,0.336c-0.768-0.832-1.391-1.729-1.871-2.688c-0.479-0.96-0.8-1.92-0.959-2.879
		c-0.32-1.759-0.113-3.424,0.625-4.992c0.51-1.056,1.249-1.903,2.208-2.543c0.992-0.607,2.063-0.864,3.217-0.768
		c1.344,0.161,2.527,0.8,3.552,1.919c0.929,0.993,1.711,2.336,2.353,4.032c0.606,1.536,1.047,3.256,1.318,5.16
		c0.271,1.904,0.361,3.833,0.266,5.784c0.256,0.032,0.52,0.048,0.793,0.048c0.271,0,0.533,0,0.789,0c1.28,0,2.418-0.175,3.41-0.528
		c0.989-0.352,1.774-0.847,2.35-1.488c0.16-0.223,0.377-0.336,0.648-0.336C105.491,60.426,105.721,60.507,105.911,60.667z
		 M95.305,62.394c0.063-1.792-0.023-3.543-0.264-5.255c-0.242-1.711-0.633-3.271-1.178-4.68c-0.16-0.416-0.368-0.889-0.625-1.417
		c-0.254-0.528-0.566-1.024-0.934-1.488c-0.369-0.463-0.777-0.864-1.226-1.2s-0.96-0.536-1.535-0.6h-0.289
		c-0.64,0-1.247,0.192-1.823,0.577c-0.576,0.383-1.039,0.944-1.393,1.68c-0.257,0.479-0.434,1.04-0.527,1.68
		c-0.097,0.641-0.08,1.328,0.049,2.064c0.127,0.736,0.392,1.505,0.791,2.304c0.399,0.8,0.967,1.601,1.703,2.4
		c0.865,0.929,1.928,1.736,3.192,2.424C92.512,61.57,93.863,62.075,95.305,62.394z M93.145,71.273
		c0.51-0.896,0.937-1.928,1.271-3.097c0.337-1.168,0.583-2.44,0.744-3.815c-1.409-0.288-2.753-0.736-4.032-1.344
		c-1.28-0.608-2.416-1.345-3.407-2.208c-0.226,0.288-0.479,0.76-0.769,1.416c-0.288,0.656-0.56,1.656-0.815,3
		c-0.449,2.303-0.416,4.29,0.096,5.952c0.32,1.023,0.775,1.793,1.369,2.303c0.59,0.515,1.224,0.771,1.896,0.771
		s1.334-0.256,1.989-0.771C92.145,72.971,92.695,72.232,93.145,71.273z"/>
	<path fill="#FFFFFF" d="M126.982,60.33c0.254,0.064,0.463,0.208,0.623,0.432c0.16,0.225,0.207,0.464,0.144,0.721
		c-0.255,1.344-0.513,2.552-0.767,3.624c-0.258,1.072-0.569,2.279-0.938,3.624c-0.368,1.346-0.792,2.705-1.271,4.08
		c-1.088,3.265-2.224,5.856-3.407,7.776c-0.257,0.414-0.552,0.831-0.89,1.248c-0.334,0.415-0.701,0.79-1.104,1.127
		c-0.4,0.336-0.823,0.606-1.271,0.815c-0.447,0.209-0.912,0.313-1.392,0.313c-0.226,0-0.384-0.018-0.479-0.049
		c-1.024-0.128-1.842-0.654-2.448-1.584c-0.8-1.216-1.218-3.104-1.248-5.664c-0.032-0.865-0.017-1.8,0.049-2.809
		c0.063-1.008,0.175-2.104,0.336-3.286c-2.399,5.087-4.942,7.631-7.632,7.631c-0.256,0-0.448-0.017-0.575-0.048
		c-0.608-0.064-1.146-0.258-1.608-0.576c-0.465-0.318-0.854-0.734-1.176-1.247c-1.121-1.92-1.23-5.088-0.337-9.504
		c0.16-0.799,0.347-1.609,0.552-2.424c0.209-0.816,0.395-1.56,0.553-2.232c0.16-0.671,0.304-1.231,0.433-1.68
		c0.128-0.448,0.192-0.688,0.192-0.72c0.063-0.256,0.279-0.495,0.646-0.719c0.368-0.224,0.792-0.4,1.272-0.529
		c0.479-0.127,0.976-0.199,1.487-0.216c0.513-0.016,0.967,0.048,1.369,0.192c0.397,0.144,0.688,0.376,0.863,0.696
		c0.175,0.319,0.166,0.736-0.025,1.248c-0.224,0.864-0.422,1.624-0.6,2.28c-0.176,0.656-0.359,1.392-0.552,2.208
		c-0.193,0.816-0.353,1.608-0.48,2.376c-0.352,2.046-0.487,3.647-0.407,4.798c0.08,1.152,0.313,1.824,0.695,2.018
		c0.385,0.191,0.912-0.12,1.584-0.938c0.672-0.814,1.439-2.166,2.305-4.056c0.447-0.991,0.848-1.984,1.199-2.976
		c0.354-0.992,0.655-1.872,0.912-2.64c0.256-0.768,0.512-1.631,0.768-2.592c0.098-0.383,0.328-0.72,0.697-1.008
		c0.366-0.288,0.799-0.504,1.297-0.648c0.494-0.144,1.006-0.208,1.535-0.192c0.527,0.017,1,0.105,1.414,0.264
		c0.416,0.161,0.736,0.417,0.961,0.769c0.223,0.353,0.271,0.784,0.143,1.295c-0.223,0.993-0.414,1.889-0.574,2.688
		c-0.16,0.799-0.337,1.72-0.528,2.76c-0.19,1.041-0.353,2.134-0.479,3.289c-0.161,1.342-0.257,2.672-0.288,3.983
		c-0.032,1.313-0.018,2.446,0.047,3.407c0.063,0.992,0.209,1.584,0.434,1.775c0.224,0.191,0.479,0.135,0.767-0.168
		c0.288-0.305,0.602-0.785,0.937-1.439c0.336-0.656,0.648-1.354,0.938-2.088c0.287-0.736,0.553-1.434,0.792-2.088
		c0.239-0.656,0.407-1.129,0.504-1.418c0.448-1.342,0.854-2.679,1.224-4.006c0.368-1.328,0.68-2.521,0.938-3.576
		c0.256-1.057,0.512-2.24,0.769-3.552c0.062-0.256,0.198-0.463,0.407-0.624C126.494,60.314,126.727,60.266,126.982,60.33z"/>
	<path fill="#FFFFFF" d="M166.482,34.027c0.256,0.064,0.447,0.208,0.576,0.432c0.127,0.224,0.158,0.464,0.096,0.719
		c-0.736,3.072-2.385,5.376-4.943,6.912c-2.177,1.318-5.072,2.086-8.688,2.304c-0.416,0.032-0.834,0.048-1.248,0.048
		c-0.416,0-0.85,0-1.297,0c-2.59,0-5.295-0.184-8.11-0.551c-2.816-0.368-5.616-0.792-8.4-1.272
		c-0.159,1.024-0.336,2.136-0.528,3.335c-0.19,1.2-0.398,2.504-0.623,3.912c-0.32,1.792-0.642,3.681-0.961,5.664
		c-0.319,1.985-0.639,4.008-0.959,6.072c-0.318,2.064-0.607,4.12-0.863,6.167c-0.258,2.049-0.479,4.049-0.674,6
		c-0.159,1.664-0.287,3.278-0.381,4.849c-0.098,1.565-0.154,2.989-0.17,4.271c-0.018,1.279,0.031,2.367,0.145,3.264
		c0.113,0.896,0.296,1.529,0.553,1.896c0.256,0.368,0.592,0.415,1.008,0.144s0.943-0.951,1.584-2.039
		c1.471-2.495,2.943-5.889,4.416-10.176c0.639-1.854,1.225-3.672,1.752-5.447c0.527-1.776,0.976-3.36,1.344-4.752
		c0.367-1.391,0.761-2.951,1.177-4.679c0.063-0.256,0.206-0.456,0.433-0.6c0.223-0.144,0.463-0.184,0.719-0.12
		c0.258,0.064,0.457,0.2,0.602,0.408s0.184,0.44,0.12,0.696c0,0.032-0.105,0.488-0.313,1.368c-0.209,0.88-0.503,2.024-0.888,3.432
		c-0.386,1.407-0.839,3.016-1.368,4.823c-0.527,1.81-1.128,3.642-1.8,5.496c-1.567,4.479-3.088,7.983-4.562,10.513
		c-2.015,3.487-4.031,5.229-6.045,5.229h-0.05c-0.993,0-1.823-0.383-2.496-1.15c-0.961-1.121-1.561-3.104-1.8-5.952
		c-0.24-2.849-0.137-6.703,0.313-11.566c0.191-1.983,0.416-4.024,0.672-6.12c0.258-2.095,0.546-4.183,0.863-6.264
		c0.319-2.08,0.641-4.128,0.961-6.144c0.318-2.016,0.64-3.936,0.961-5.76c0.254-1.504,0.485-2.912,0.694-4.224
		c0.207-1.311,0.392-2.479,0.552-3.503c-2.049-0.352-3.982-0.648-5.808-0.888c-1.823-0.24-3.487-0.375-4.991-0.408
		c-1.217,0-2.199,0.072-2.951,0.216s-1.345,0.336-1.777,0.575c-0.432,0.241-0.742,0.497-0.936,0.769
		c-0.191,0.272-0.32,0.537-0.384,0.792c-0.16,0.576-0.545,0.816-1.153,0.72c-0.256-0.064-0.455-0.216-0.6-0.457
		c-0.145-0.24-0.184-0.487-0.119-0.744c0.385-1.44,1.359-2.464,2.928-3.072c0.641-0.255,1.367-0.439,2.184-0.552
		c0.816-0.111,1.77-0.168,2.855-0.168c1.729,0.033,3.666,0.195,5.81,0.486s4.384,0.631,6.72,1.02l9.167,1.603
		c2.399,0.388,4.761,0.679,7.08,0.873c2.319,0.194,4.487,0.226,6.504,0.098c3.486-0.255,6.197-1.007,8.136-2.255
		c1.937-1.248,3.207-3.088,3.814-5.52c0.064-0.255,0.208-0.456,0.434-0.6C165.986,34.003,166.227,33.963,166.482,34.027z"/>
</g>
</svg>
