<?xml version="1.0" encoding="utf-8"?>
<!-- Generator: Adobe Illustrator 16.0.0, SVG Export Plug-In . SVG Version: 6.00 Build 0)  -->
<!DOCTYPE svg PUBLIC "-//W3C//DTD SVG 1.1//EN" "http://www.w3.org/Graphics/SVG/1.1/DTD/svg11.dtd">
<svg version="1.1" id="Layer_1" xmlns="http://www.w3.org/2000/svg" xmlns:xlink="http://www.w3.org/1999/xlink" x="0px" y="0px"
	 width="127.667px" height="134px" viewBox="0 0 127.667 134" enable-background="new 0 0 127.667 134" xml:space="preserve">
<g>
	<g>
		<path fill="#FFFFFF" d="M24.909,43.389c-0.063-0.697-0.1-1.35-0.114-1.958c-0.017-0.606-0.032-1.208-0.047-1.798
			c-0.015-0.592-0.021-1.184-0.021-1.775c0-0.591,0-1.237,0-1.937c0-2.368,0.128-4.712,0.387-7.034
			c0.258-2.323,0.447-4.667,0.569-7.036c0-0.273-0.007-0.629-0.023-1.069c-0.015-0.44,0.023-0.865,0.114-1.275
			c0.091-0.41,0.258-0.744,0.501-1.003c0.242-0.256,0.622-0.37,1.138-0.341c0.484,0.061,0.865,0.259,1.138,0.592
			c0.273,0.334,0.486,0.728,0.638,1.184c-0.303,3.067-0.584,6.124-0.842,9.174c-0.259,3.052-0.388,6.141-0.388,9.267
			c0,0.729,0.038,1.458,0.114,2.186c0.076,0.729,0.114,1.457,0.114,2.185c0,0.244-0.015,0.502-0.046,0.774
			c-0.03,0.274-0.09,0.532-0.182,0.775c-0.091,0.244-0.235,0.448-0.432,0.614c-0.197,0.167-0.448,0.25-0.752,0.25
			c-0.546,0-0.956-0.183-1.229-0.547C25.271,44.254,25.059,43.844,24.909,43.389z"/>
		<path fill="#FFFFFF" d="M38.365,40.395c0-0.517,0.82-0.888,2.459-1.116c1.639-0.228,3.414-0.386,5.327-0.477l51.431-1.14
			c2.32,0,4.51,0.092,6.559,0.273c2.049,0.183,3.072,0.578,3.072,1.185c0,0.151-0.445,0.318-1.334,0.5
			c-0.889,0.182-1.877,0.35-2.971,0.501c-1.095,0.151-2.253,0.281-3.479,0.386c-1.231,0.107-2.12,0.131-2.664,0.069l-50.613,1.23
			c-1.776,0-3.518-0.13-5.225-0.388S38.365,40.82,38.365,40.395z"/>
		<path fill="#FFFFFF" d="M21.816,75.77c0-0.246,0.022-0.427,0.069-0.549c0.044-0.121,0.159-0.318,0.34-0.592
			c0.819-1.275,1.647-2.559,2.482-3.847c0.834-1.29,1.594-2.61,2.277-3.961c0.684-1.351,1.236-2.739,1.662-4.168
			c0.424-1.425,0.637-2.913,0.637-4.461c-0.911,0-1.715,0.273-2.413,0.82c-0.699,0.546-1.367,1.153-2.004,1.821
			C24.23,61.5,23.607,62.107,23,62.653c-0.608,0.547-1.26,0.82-1.958,0.82c-0.212,0-0.44-0.022-0.684-0.067
			c-0.242-0.047-0.47-0.122-0.682-0.228c-0.212-0.107-0.395-0.259-0.546-0.457c-0.153-0.196-0.228-0.431-0.228-0.705v-0.092
			c0.183-0.394,0.44-0.781,0.774-1.161c0.333-0.379,0.699-0.742,1.093-1.093c0.394-0.348,0.788-0.675,1.183-0.979
			c0.396-0.302,0.743-0.576,1.048-0.819c0.425-0.365,0.91-0.745,1.458-1.14c0.546-0.394,1.115-0.765,1.706-1.114
			c0.593-0.349,1.208-0.639,1.846-0.864c0.637-0.229,1.274-0.343,1.913-0.343c1.093,0,1.85,0.343,2.276,1.024
			c0.424,0.683,0.636,1.556,0.636,2.618c0,2.005-0.34,3.97-1.024,5.896c-0.683,1.928-1.51,3.756-2.481,5.484v0.186l-1.184,2.095
			h0.41c1.273-0.729,2.647-1.342,4.12-1.846c1.472-0.5,2.921-0.916,4.349-1.251h0.181c0.548,0,1.003,0.092,1.367,0.273
			c0.364,0.18,0.547,0.606,0.547,1.274c0,0.456-0.123,0.851-0.364,1.185c-0.244,0.061-0.555,0.151-0.934,0.271
			c-0.381,0.121-0.706,0.15-0.979,0.092l-4.463,1.598l-7.285,3.822c-0.486,0.244-0.973,0.365-1.458,0.365
			c-0.425,0-0.835-0.178-1.229-0.525C22.013,76.623,21.816,76.221,21.816,75.77z"/>
		<path fill="#FFFFFF" d="M45.908,72.773c0-0.519,0.727-0.89,2.186-1.116c1.456-0.228,3.033-0.388,4.735-0.478l45.713-1.14
			c2.064,0,4.008,0.092,5.83,0.272c1.82,0.183,2.73,0.576,2.73,1.185c0,0.153-0.396,0.317-1.182,0.503
			c-0.793,0.18-1.674,0.35-2.644,0.501c-0.973,0.147-2.003,0.278-3.097,0.382c-1.094,0.109-1.885,0.133-2.368,0.073l-44.986,1.229
			c-1.58,0-3.128-0.131-4.644-0.389C46.665,73.54,45.908,73.2,45.908,72.773z"/>
		<path fill="#FFFFFF" d="M26.391,108.146c0-0.271,0.024-0.49,0.069-0.66c0.044-0.166,0.22-0.327,0.524-0.478
			c0.029-0.03,0.104-0.053,0.227-0.069c0.122-0.016,0.25-0.035,0.387-0.067c0.138-0.03,0.258-0.052,0.364-0.067
			c0.107-0.016,0.175-0.021,0.206-0.021c0.181-0.029,0.387-0.113,0.615-0.251c0.226-0.136,0.455-0.287,0.683-0.455
			c0.227-0.169,0.433-0.328,0.615-0.479c0.18-0.15,0.318-0.258,0.408-0.318c0.88-0.76,1.479-1.596,1.798-2.504
			c0.32-0.909,0.479-1.928,0.479-3.051c0-0.151,0-0.363,0-0.639s-0.008-0.553-0.023-0.841c-0.016-0.29-0.068-0.547-0.159-0.774
			c-0.091-0.229-0.228-0.388-0.41-0.479c-0.061-0.03-0.205-0.047-0.433-0.047c-0.226,0-0.372,0-0.432,0
			c-0.699,0-1.359,0.146-1.98,0.434c-0.622,0.29-1.23,0.61-1.822,0.957c-0.592,0.35-1.2,0.667-1.821,0.954
			c-0.623,0.291-1.298,0.437-2.027,0.437c-0.485,0-0.865-0.162-1.138-0.479c-0.274-0.317-0.411-0.705-0.411-1.159
			c0-0.486,0.289-1.143,0.866-1.961c0.577-0.816,1.229-1.686,1.958-2.593c0.729-0.912,1.441-1.815,2.14-2.71
			c0.698-0.895,1.184-1.662,1.457-2.301h-0.364c-0.699,0-1.336,0.146-1.913,0.433c-0.578,0.291-1.124,0.603-1.639,0.935
			c-0.517,0.336-1.025,0.646-1.525,0.935c-0.502,0.286-1.026,0.434-1.573,0.434c-0.395,0-0.804-0.098-1.229-0.296
			c-0.426-0.197-0.639-0.554-0.639-1.07c0-0.427,0.229-0.858,0.684-1.297c0.455-0.443,1.047-0.851,1.775-1.231
			c0.729-0.38,1.541-0.734,2.437-1.068c0.895-0.335,1.775-0.621,2.642-0.866c0.865-0.24,1.66-0.432,2.389-0.568
			c0.73-0.137,1.29-0.204,1.685-0.204c1.123,0,1.684,0.591,1.684,1.776v0.592c-0.516,1.365-1.137,2.589-1.866,3.664
			c-0.729,1.08-1.458,2.224-2.186,3.438h0.456c0.425,0,0.811-0.027,1.161-0.088c0.349-0.063,0.736-0.094,1.162-0.094
			c1.212,0,2.17,0.387,2.868,1.162c0.698,0.774,1.199,1.724,1.503,2.848c0,0.148,0.007,0.46,0.022,0.934
			c0.016,0.469,0.023,0.767,0.023,0.885c0,2.035-0.426,3.772-1.275,5.216c-0.849,1.442-2.109,2.737-3.779,3.894
			c-0.849,0.668-1.775,1-2.777,1c-0.486,0-0.918-0.173-1.297-0.523C26.581,109.005,26.391,108.602,26.391,108.146z"/>
		<path fill="#FFFFFF" d="M41.915,105.154c0-0.519,0.764-0.889,2.295-1.118c1.53-0.228,3.186-0.386,4.972-0.478l48.001-1.138
			c2.165,0,4.208,0.09,6.119,0.271c1.912,0.186,2.867,0.578,2.867,1.185c0,0.153-0.416,0.319-1.242,0.502
			c-0.828,0.183-1.754,0.351-2.771,0.503c-1.023,0.15-2.105,0.278-3.253,0.385c-1.146,0.106-1.978,0.133-2.485,0.068l-47.236,1.23
			c-1.659,0-3.285-0.131-4.877-0.39C42.71,105.921,41.915,105.576,41.915,105.154z"/>
	</g>
	<path fill="#FFFFFF" d="M104.296,133.962H24.12c-12.699,0-23.032-10.333-23.032-23.032V23.043
		c0-12.699,10.333-23.032,23.032-23.032h80.176c12.699,0,23.033,10.333,23.033,23.032v87.887
		C127.332,123.629,116.998,133.962,104.296,133.962z M24.12,9.072c-7.704,0-13.972,6.269-13.972,13.972v87.886
		c0,7.703,6.268,13.971,13.972,13.971h80.176c7.705,0,13.973-6.268,13.973-13.971V23.043c0-7.703-6.268-13.972-13.973-13.972
		L24.12,9.072L24.12,9.072z"/>
</g>
</svg>
