<?xml version="1.0" encoding="utf-8"?>
<!-- Generator: Adobe Illustrator 16.0.0, SVG Export Plug-In . SVG Version: 6.00 Build 0)  -->
<!DOCTYPE svg PUBLIC "-//W3C//DTD SVG 1.1//EN" "http://www.w3.org/Graphics/SVG/1.1/DTD/svg11.dtd">
<svg version="1.1" id="Layer_1" xmlns="http://www.w3.org/2000/svg" xmlns:xlink="http://www.w3.org/1999/xlink" x="0px" y="0px"
	 width="476px" height="15px" viewBox="0 0 476 15" enable-background="new 0 0 476 15" xml:space="preserve">
<g>
	<path fill="none" stroke="#000000" stroke-width="1.683" d="M9.68,1.667L1.607,14.404 M14.359,1.667L6.286,14.404 M19.038,1.667
		l-8.073,12.738 M23.716,1.667l-8.072,12.738 M28.396,1.667l-8.073,12.738 M33.075,1.667l-8.072,12.738 M37.753,1.667l-8.073,12.738
		 M42.432,1.667L34.36,14.404 M47.112,1.667l-8.073,12.738 M51.79,1.667l-8.073,12.738 M56.469,1.667l-8.072,12.738 M61.148,1.667
		l-8.072,12.738 M65.828,1.667l-8.073,12.738 M70.505,1.667l-8.073,12.738 M75.185,1.667l-8.073,12.738 M79.864,1.667l-8.073,12.738
		 M84.543,1.667l-8.072,12.738 M89.221,1.667l-8.072,12.738 M93.9,1.667l-8.072,12.738 M98.58,1.667l-8.073,12.738 M103.258,1.667
		l-8.072,12.738 M107.937,1.667l-8.072,12.738 M112.616,1.667l-8.073,12.738 M117.295,1.667l-8.072,12.738 M121.973,1.667
		l-8.072,12.738 M126.653,1.667l-8.073,12.738 M131.332,1.667l-8.073,12.738 M136.011,1.667l-8.073,12.738 M140.689,1.667
		l-8.073,12.738 M145.369,1.667l-8.073,12.738 M150.047,1.667l-8.072,12.738 M154.727,1.667l-8.072,12.738 M159.405,1.667
		l-8.072,12.738 M164.084,1.667l-8.073,12.738 M168.763,1.667l-8.073,12.738 M173.441,1.667l-8.071,12.738 M178.121,1.667
		l-8.072,12.738 M182.8,1.667l-8.072,12.738 M187.479,1.667l-8.072,12.738 M192.157,1.667l-8.072,12.738 M196.836,1.667
		l-8.073,12.738 M201.516,1.667l-8.073,12.738 M206.194,1.667l-8.073,12.738 M210.873,1.667l-8.072,12.738 M215.552,1.667
		l-8.072,12.738 M220.231,1.667l-8.073,12.738 M224.91,1.667l-8.072,12.738 M229.589,1.667l-8.073,12.738 M234.267,1.667
		l-8.072,12.738 M238.947,1.667l-8.072,12.738 M243.625,1.667l-8.072,12.738 M248.304,1.667l-8.072,12.738 M252.984,1.667
		l-8.074,12.738 M257.663,1.667l-8.073,12.738 M262.341,1.667l-8.072,12.738 M267.021,1.667l-8.074,12.738 M271.7,1.667
		l-8.073,12.738 M276.378,1.667l-8.072,12.738 M281.057,1.667l-8.072,12.738 M285.737,1.667l-8.073,12.738 M290.414,1.667
		l-8.071,12.738 M295.094,1.667l-8.073,12.738 M299.773,1.667L291.7,14.404 M304.451,1.667l-8.071,12.738 M309.131,1.667
		l-8.074,12.738 M313.808,1.667l-8.07,12.738 M318.487,1.667l-8.07,12.738 M323.167,1.667l-8.073,12.738 M327.847,1.667
		l-8.073,12.738 M332.524,1.667l-8.071,12.738 M337.203,1.667l-8.072,12.738 M341.884,1.667l-8.074,12.738 M346.563,1.667
		l-8.073,12.738 M351.24,1.667l-8.072,12.738 M355.919,1.667l-8.072,12.738 M360.6,1.667l-8.073,12.738 M365.279,1.667
		l-8.074,12.738 M369.956,1.667l-8.072,12.738 M374.636,1.667l-8.073,12.738 M379.313,1.667l-8.071,12.738 M383.993,1.667
		l-8.071,12.738 M388.672,1.667L380.6,14.404 M393.35,1.667l-8.07,12.738 M398.03,1.667l-8.072,12.738 M402.709,1.667l-8.073,12.738
		 M407.387,1.667l-8.071,12.738 M412.066,1.667l-8.073,12.738 M416.746,1.667l-8.073,12.738 M421.423,1.667l-8.071,12.738
		 M426.103,1.667l-8.072,12.738 M430.783,1.667l-8.074,12.738 M435.462,1.667l-8.073,12.738 M440.14,1.667l-8.074,12.738
		 M444.818,1.667l-8.072,12.738 M449.499,1.667l-8.073,12.738 M454.177,1.667l-8.072,12.738 M458.855,1.667l-8.072,12.738
		 M463.535,1.667l-8.073,12.738 M468.215,1.667l-8.073,12.738 M472.893,1.667l-8.073,12.738"/>
	<path fill="none" stroke="#FFFFFF" stroke-width="1.683" d="M10.713,1.667L2.641,14.404 M15.393,1.667L7.32,14.404 M20.071,1.667
		l-8.072,12.738 M24.75,1.667l-8.072,12.738 M29.43,1.667l-8.073,12.738 M34.109,1.667l-8.073,12.738 M38.787,1.667l-8.073,12.738
		 M43.466,1.667l-8.072,12.738 M48.145,1.667l-8.072,12.738 M52.823,1.667l-8.072,12.738 M57.502,1.667L49.43,14.404 M62.182,1.667
		l-8.073,12.738 M66.861,1.667l-8.073,12.738 M71.539,1.667l-8.073,12.738 M76.218,1.667l-8.073,12.738 M80.897,1.667l-8.072,12.738
		 M85.577,1.667l-8.073,12.738 M90.254,1.667l-8.072,12.738 M94.935,1.667l-8.073,12.738 M99.613,1.667l-8.073,12.738
		 M104.292,1.667L96.22,14.404 M108.97,1.667l-8.072,12.738 M113.65,1.667l-8.072,12.738 M118.329,1.667l-8.072,12.738
		 M123.007,1.667l-8.072,12.738 M127.687,1.667l-8.073,12.738 M132.366,1.667l-8.073,12.738 M137.044,1.667l-8.073,12.738
		 M141.723,1.667l-8.072,12.738 M146.402,1.667l-8.072,12.738 M151.081,1.667l-8.072,12.738 M155.76,1.667l-8.073,12.738
		 M160.438,1.667l-8.072,12.738 M165.118,1.667l-8.073,12.738 M169.797,1.667l-8.073,12.738 M174.475,1.667l-8.071,12.738
		 M179.154,1.667l-8.072,12.738 M183.833,1.667l-8.072,12.738 M188.513,1.667l-8.073,12.738 M193.191,1.667l-8.073,12.738
		 M197.87,1.667l-8.073,12.738 M202.549,1.667l-8.073,12.738 M207.228,1.667l-8.072,12.738 M211.907,1.667l-8.073,12.738
		 M216.586,1.667l-8.073,12.738 M221.265,1.667l-8.073,12.738 M225.944,1.667l-8.072,12.738 M230.623,1.667l-8.073,12.738
		 M235.301,1.667l-8.072,12.738 M239.981,1.667l-8.074,12.738 M244.658,1.667l-8.071,12.738 M249.338,1.667l-8.073,12.738
		 M254.018,1.667l-8.073,12.738 M258.697,1.667l-8.073,12.738 M263.375,1.667l-8.073,12.738 M268.054,1.667l-8.072,12.738
		 M272.734,1.667l-8.074,12.738 M277.411,1.667l-8.071,12.738 M282.091,1.667l-8.072,12.738 M286.77,1.667l-8.072,12.738
		 M291.448,1.667l-8.071,12.738 M296.128,1.667l-8.074,12.738 M300.807,1.667l-8.072,12.738 M305.484,1.667l-8.071,12.738
		 M310.164,1.667l-8.073,12.738 M314.842,1.667l-8.071,12.738 M319.521,1.667l-8.07,12.738 M324.2,1.667l-8.072,12.738
		 M328.881,1.667l-8.074,12.738 M333.558,1.667l-8.071,12.738 M338.237,1.667l-8.073,12.738 M342.916,1.667l-8.072,12.738
		 M347.597,1.667l-8.073,12.738 M352.273,1.667L344.2,14.404 M356.953,1.667l-8.072,12.738 M361.634,1.667l-8.074,12.738
		 M366.313,1.667l-8.073,12.738 M370.99,1.667l-8.074,12.738 M375.669,1.667l-8.072,12.738 M380.348,1.667l-8.071,12.738
		 M385.026,1.667l-8.071,12.738 M389.706,1.667l-8.072,12.738 M394.384,1.667l-8.071,12.738 M399.063,1.667l-8.071,12.738
		 M403.743,1.667l-8.074,12.738 M408.42,1.667l-8.07,12.738 M413.1,1.667l-8.072,12.738 M417.78,1.667l-8.074,12.738 M422.457,1.667
		l-8.071,12.738 M427.137,1.667l-8.073,12.738 M431.815,1.667l-8.072,12.738 M436.496,1.667l-8.073,12.738 M441.173,1.667
		L433.1,14.404 M445.853,1.667l-8.072,12.738 M450.532,1.667l-8.073,12.738 M455.21,1.667l-8.071,12.738 M459.89,1.667
		l-8.074,12.738 M464.568,1.667l-8.072,12.738 M469.248,1.667l-8.072,12.738 M473.926,1.667l-8.073,12.738"/>
</g>
</svg>
